<svg id="Capa_1" enable-background="new 0 0 512 512" height="512" viewBox="0 0 512 512" width="512" xmlns="http://www.w3.org/2000/svg"><g><path d="m488 0h-94.346c-6.893 0-12.5 5.607-12.5 12.5v23c0 6.893 5.607 12.5 12.5 12.5h70.346v70.346c0 6.893 5.607 12.5 12.5 12.5h23c6.893 0 12.5-5.607 12.5-12.5v-94.346c0-13.234-10.767-24-24-24zm9 115.846h-18v-71.346c0-6.341-5.159-11.5-11.5-11.5h-71.346v-18h91.846c4.963 0 9 4.038 9 9z"/><path d="m12.5 130.846h23c6.893 0 12.5-5.607 12.5-12.5v-70.346h70.346c6.893 0 12.5-5.607 12.5-12.5v-23c0-6.893-5.607-12.5-12.5-12.5h-94.346c-13.233 0-24 10.766-24 24v94.346c0 6.893 5.607 12.5 12.5 12.5zm2.5-106.846c0-4.962 4.037-9 9-9h91.846v18h-71.346c-6.341 0-11.5 5.159-11.5 11.5v71.346h-18z"/><path d="m499.5 381.154h-23c-6.893 0-12.5 5.607-12.5 12.5v70.346h-70.346c-6.893 0-12.5 5.607-12.5 12.5v23c0 6.893 5.607 12.5 12.5 12.5h94.346c13.233 0 24-10.766 24-24v-94.346c0-6.893-5.607-12.5-12.5-12.5zm-2.5 106.846c0 4.962-4.037 9-9 9h-91.846v-18h71.346c6.341 0 11.5-5.159 11.5-11.5v-71.346h18z"/><path d="m118.346 464h-70.346v-70.346c0-6.893-5.607-12.5-12.5-12.5h-23c-6.893 0-12.5 5.607-12.5 12.5v94.346c0 13.234 10.767 24 24 24h94.346c6.893 0 12.5-5.607 12.5-12.5v-23c0-6.893-5.608-12.5-12.5-12.5zm-2.5 33h-91.846c-4.963 0-9-4.038-9-9v-91.846h18v71.346c0 6.341 5.159 11.5 11.5 11.5h71.346z"/><path d="m401.154 312.526c0-10.73-4.763-20.362-12.277-26.914 2.748-6.169 4.183-12.877 4.183-19.732v-71.55c0-59.662-48.533-108.2-108.189-108.2h-58.671c-14.784 0-29.069 5.331-40.223 15.011-10.661 9.252-17.811 21.876-20.24 35.669h-1.167c-25.16 0-45.63 20.469-45.63 45.63v14.13c0 4.142 3.357 7.5 7.5 7.5s7.5-3.358 7.5-7.5v-14.13c0-16.889 13.74-30.63 30.63-30.63h2.72c6.552 0 12.033-4.732 13.036-11.271 3.39-22.467 23.11-39.409 45.874-39.409h58.67c51.385 0 93.189 41.81 93.189 93.2v71.55c0 4.301-.831 8.508-2.396 12.431-3.241-.97-6.671-1.499-10.223-1.499h-5.86v-26.121c0-11.737-8.74-21.596-20.331-22.934-44.954-5.186-86.407-21.37-119.877-46.802-2.879-2.188-6.536-2.921-10.038-2.015-3.499.909-6.339 3.331-7.79 6.643-6.864 15.662-19.315 27.958-35.059 34.622-8.544 3.617-14.065 11.959-14.065 21.251v35.355h-5.86c-3.552 0-6.982.528-10.223 1.499-1.566-3.923-2.396-8.13-2.396-12.431v-34.31c0-4.142-3.357-7.5-7.5-7.5s-7.5 3.358-7.5 7.5v34.31c0 6.855 1.435 13.563 4.183 19.732-7.515 6.552-12.277 16.184-12.277 26.914 0 19.693 16.021 35.714 35.714 35.714h5.86v19.021c0 32.316 26.29 58.606 58.605 58.606h89.949c12.541 0 24.504-3.907 34.597-11.297 3.342-2.447 4.066-7.14 1.619-10.482-2.447-3.343-7.141-4.066-10.482-1.62-7.503 5.495-16.401 8.399-25.733 8.399h-89.949c-24.044 0-43.605-19.562-43.605-43.606v-125.803c0-3.255 1.929-6.175 4.913-7.438 18.023-7.63 32.524-21.283 41.21-38.698 35.023 25.666 77.798 42.01 123.987 47.338 4.019.463 7.05 3.917 7.05 8.032v116.569c0 3.68-.457 7.332-1.359 10.853-1.027 4.013 1.393 8.099 5.404 9.126 4.021 1.027 8.099-1.393 9.127-5.405 1.213-4.736 1.828-9.64 1.828-14.575v-19.019h5.86c19.691 0 35.712-16.021 35.712-35.714zm-254.594 20.714c-11.422 0-20.714-9.292-20.714-20.714s9.292-20.714 20.714-20.714h5.86v41.428zm213.02-41.428h5.86c11.422 0 20.714 9.292 20.714 20.714s-9.292 20.714-20.714 20.714h-5.86z"/><path d="m204.358 280.433v15.899c0 4.142 3.357 7.5 7.5 7.5s7.5-3.358 7.5-7.5v-15.899c0-4.142-3.357-7.5-7.5-7.5s-7.5 3.358-7.5 7.5z"/><path d="m292.642 280.433v15.899c0 4.142 3.357 7.5 7.5 7.5s7.5-3.358 7.5-7.5v-15.899c0-4.142-3.357-7.5-7.5-7.5s-7.5 3.358-7.5 7.5z"/><path d="m496.459 263.5c4.143 0 7.5-3.358 7.5-7.5s-3.357-7.5-7.5-7.5h-70.594c-4.143 0-7.5 3.358-7.5 7.5s3.357 7.5 7.5 7.5z"/><path d="m15.541 248.5c-4.143 0-7.5 3.358-7.5 7.5s3.357 7.5 7.5 7.5h70.594c4.143 0 7.5-3.358 7.5-7.5s-3.357-7.5-7.5-7.5z"/></g></svg>